# xmcd
#
# Track frame offsets:
#	183
#	22338
#	64058
#	99603
#	146583
#	204308
#	230458
#	257483
#
# Disc length: 4178 seconds
#
# Revision: 0
# Processed by: cddbd v1.5.1PL0 Copyright (c) Steve Scherf et al.
# Submitted via: EasyCDDAExtractor 8.0.0.2
#
DISCID=6e105008
DTITLE=Prince - Happy B. Day!
DYEAR=1984
DGENRE=Blues
TTITLE0=Free
TTITLE1=Noon Rendezvous
TTITLE2=Erotic City
TTITLE3=Something In The Water (Does Not Compute)
TTITLE4=When Doves Cry
TTITLE5=Irresistible Bitch
TTITLE6=Possessed
TTITLE7=Gotta Shake This Feeling, Baby (BONUS TRACK)
EXTD=
EXTT0=
EXTT1=
EXTT2=
EXTT3=
EXTT4=
EXTT5=
EXTT6=
EXTT7=
PLAYORDER=
